<?xml version="1.0" encoding="utf-8"?>
<!-- Generator: Adobe Illustrator 22.0.1, SVG Export Plug-In . SVG Version: 6.00 Build 0)  -->
<svg version="1.1" id="Capa_1" xmlns="http://www.w3.org/2000/svg" xmlns:xlink="http://www.w3.org/1999/xlink" x="0px" y="0px"
	 viewBox="0 0 864.9 294.5" style="enable-background:new 0 0 864.9 294.5;" xml:space="preserve">
<g>
	<path d="M534.3,154.6c-1.4-1.6-2.5-3.3-3.5-5.1c-0.5,48.3-39.9,87.4-88.3,87.4c-48.7,0-88.3-39.6-88.3-88.3s39.6-88.3,88.3-88.3
		c41.9,0,77,29.3,86,68.5l8-59.4l0.2-1.3c-22.8-26.6-56.5-43.5-94.2-43.5c-29.4,0-56.4,10.3-77.7,27.4v1.3v1.1v25.2v1
		c0,16.8-8.7,32.2-22.5,40.9V220v1.7c22.6,30.9,59.1,51,100.2,51c43.2,0,81.3-22.2,103.5-55.8v-1.8v-52.7
		C541.6,160.9,537.5,158.2,534.3,154.6z"/>
	<path d="M442.6,75.4c-40.4,0-73.3,32.9-73.3,73.3s32.9,73.3,73.3,73.3s73.3-32.9,73.3-73.3S483,75.4,442.6,75.4z"/>
	<path d="M582.8,11.6c0-6.4-5.2-11.6-11.6-11.6c-5.8,0-10.7,4.3-11.5,10l-16.9,125.5c-0.4,3.3,0.6,6.6,2.8,9.1
		c2.2,2.5,5.4,3.9,8.7,3.9h6.8v134.7c0,6.1,4.9,11,11,11s11-4.9,11-11L582.8,11.6z"/>
	<path d="M349.9,14c0-4.1-3.4-7.5-7.5-7.5s-7.5,3.4-7.5,7.5v41.5h-11V14c0-4.1-3.4-7.5-7.5-7.5s-7.5,3.4-7.5,7.5v41.5h-11V14
		c0-4.1-3.4-7.5-7.5-7.5s-7.5,3.4-7.5,7.5v67.7c0,14.6,9.4,27.1,22.5,31.6v170c0,6.1,4.9,11,11,11s11-4.9,11-11v-170
		c13.1-4.6,22.5-17,22.5-31.6V14z"/>
</g>
<g>
	<path d="M267.4,234h-47v60.6h-65.1V234H0V189L135.9,6.1h70L79.9,179.6h77.4v-54h63v54h47V234z"/>
	<path d="M864.9,234h-47v60.6h-65.1V234H597.6V189L733.5,6.1h70L677.5,179.6h77.4v-54h63v54h47V234z"/>
</g>
</svg>
