<svg id="Calque_1" data-name="Calque 1" xmlns="http://www.w3.org/2000/svg" viewBox="0 0 294.72 135.33"><title>assiette</title><path d="M240.83,98.29C214,106,181.69,110,147.36,110c-33.58,0-65.33-3.89-91.83-11.24A168.48,168.48,0,0,1,24.34,87.07a16.47,16.47,0,0,0,1.33,4.13C40,116.62,89.06,135.33,147.36,135.33c59.56,0,109.46-19.54,122.57-45.78a12.86,12.86,0,0,0,.83-2.68A168.21,168.21,0,0,1,240.83,98.29Z"/><path d="M270.76,86.87a12.86,12.86,0,0,1-.83,2.68c-13.11,26.24-63,45.78-122.57,45.78C89.06,135.33,40,116.62,25.67,91.2a16.47,16.47,0,0,1-1.33-4.13A168.48,168.48,0,0,0,55.53,98.76C82,106.11,113.78,110,147.36,110c34.33,0,66.65-4,93.47-11.71A168.21,168.21,0,0,0,270.76,86.87Z"/><path d="M147.36,0C66,0,0,23.5,0,52.5c0,4.69,1.72,9.23,5,13.56,4,5.3,10.2,10.27,18.31,14.77C49.47,95.37,95.26,105,147.36,105c52.27,0,98.2-9.7,124.36-24.32,8.72-4.87,15.24-10.29,19.07-16.08a21.77,21.77,0,0,0,3.93-12.1C294.72,23.5,228.74,0,147.36,0ZM266.21,59c-4.18,8.54-16.66,16.22-36.15,22.08-22.25,6.68-51.62,10.36-82.7,10.36s-60.45-3.68-82.7-10.36C45.17,75.22,32.69,67.54,28.51,59a14.51,14.51,0,0,1-1.58-6.5c0-11.12,13.4-21.27,37.73-28.58,4.62-1.39,9.54-2.64,14.72-3.77,19.79-4.28,43.35-6.59,68-6.59s48.19,2.31,68,6.59c5.18,1.13,10.1,2.38,14.72,3.77,24.33,7.31,37.73,17.46,37.73,28.58A14.51,14.51,0,0,1,266.21,59Z"/><path d="M262.79,52.5a9.52,9.52,0,0,1-1.06,4.28c-2.06,4.2-9.07,12.28-33.11,19.51-21.8,6.55-50.66,10.15-81.26,10.15S87.9,82.84,66.1,76.29C42.06,69.06,35.05,61,33,56.8a9.55,9.55,0,0,1-1.07-4.3C31.93,44,44.7,35.14,66.1,28.71c21.8-6.55,50.66-10.15,81.26-10.15s59.46,3.6,81.26,10.15C250,35.14,262.79,44,262.79,52.5Z"/></svg>