<?xml version="1.0" encoding="utf-8"?>
<!-- Generator: Adobe Illustrator 22.1.0, SVG Export Plug-In . SVG Version: 6.00 Build 0)  -->
<svg version="1.1" id="Calque_1" xmlns="http://www.w3.org/2000/svg" xmlns:xlink="http://www.w3.org/1999/xlink" x="0px" y="0px"
	 viewBox="0 0 143.4 41.6" style="enable-background:new 0 0 143.4 41.6;" xml:space="preserve">
<style type="text/css">
	.st0{fill:#F6F5F2;}
</style>
<path class="st0" d="M82.1,4.4c4.6,3.2,7.6,8.5,7.6,14.5c0,9.8-8.1,17.7-18,17.7s-18-7.9-18-17.7c0-6,3-11.3,7.6-14.5
	c-5.9,3.5-9.8,9.9-9.8,17.2c0,11.1,9,20,20.2,20c11.1,0,20.2-9,20.2-20C91.9,14.2,87.9,7.9,82.1,4.4z"/>
<path class="st0" d="M80.5,5.9L80.5,5.9c1.2-1.6,2.2-3.1,2.9-4.7c-2.2,2.2-4,3.5-5.2,4.1s-2.9,1.2-5.9,1.5c0,0-4.8-0.1-5.9-1
	c-1.3-1.3-4.9-4.8-5.2-4.6c0,0,1.3,1.8,1.3,4.2l0,26.7c0,0,14.9,0,15.8,0c1.8,0,5.1-1.3,5.1-3.5c0,0,0-8.1,0-8.2
	c-0.5-1.5-2.3-2.3-3.6-2.6c-0.4-0.1-0.4-0.6,0-0.7c1.3-0.5,3.7-1,3.6-3.1c0-2,0-5.7,0-5.7C83,7,81.7,6.3,80.5,5.9z M74.7,27.8
	C74.7,27.8,74.7,27.8,74.7,27.8c0,0.1-0.2,1.4-2.8,1.3V18.8c1.7,0.2,2.6,0.4,2.8,1.1C74.7,20,74.7,27.8,74.7,27.8z M74.7,14.8
	C74.7,14.8,74.7,14.8,74.7,14.8c0,0.1-0.2,1.3-2.8,1.3V8c1.7,0.2,2.6,0.3,2.8,1.1c0,0,0,0.1,0,0.1V14.8z"/>
<g>
	<path class="st0" d="M52.4,28.7c-0.1-0.1-0.3-0.1-0.4-0.1c-1,0.2-2.9-0.2-4.8-1.2c-0.7-0.3-0.5-0.9,0.1-0.9c2-0.6,1.5-0.8,4.2-0.8
		c0-0.2-0.1-0.5-0.1-0.8c0,0,0,0,0,0c0,0,0-0.1,0-0.1c0,0.1,0,0.1-0.1,0.1c-0.2,0-0.7,0-0.8,0c-2.4-0.2-9.5-2.2-12.2-10
		c-0.1-0.4,0.1-0.8,0.5-0.9c0.7-0.1,1.7-0.3,2.7-0.4c0.2,0,0.3,0.1,0.4,0.3c1.9,3.9,5,6.5,9.1,7.5c0-0.3,0-0.6,0-0.9
		c-1.3,0-8-2.6-8.7-9.2c0-0.3-0.6-3.7-0.6-3.7c-0.1-0.8-0.9-1.3-1.7-1.3L7,6.2c-0.1,0-3.8-2.1-5.3-3.9C1.3,1.8,0.8,1,1.5,1l45.3,0.2
		c1.1,0,3.1,4.1,3.1,5.6c0,0,0,5.9,0,6c0.2,0.9,1.4,2.2,2,2.8c0,0,0,0,0-0.1c0.1-0.2,0.1-0.4,0.2-0.6c0-0.2,0-0.5,0-0.7
		c0-0.1-0.1-0.1-0.2-0.2c-0.6-0.7-0.9-1.6-0.9-2.5c0-1.3,0-3.3,0-4.7c0.2-1.4-1.8-6.5-4.1-6.6L0.6,0c-1.3,0-0.1,2.4,0.3,2.9
		c0.6,0.7,1.7,1.7,2.8,2.4c1.4,1,2.9,1.8,3.3,1.8l1.4,0C8.3,7.6,8.4,8,8.6,8.3c0.3,0.5,0.7,1,1,1.3c1.8,2.2,4.4,3.4,7.1,3.4
		c0,0,0.7,0,1,0c-0.1,0.4,0,0.8,0.2,1.2c0.6,1,1.5,1.8,2.7,2.5c1.2,0.7,2.5,1,4,1c0.4,0,0.8,0,1.1-0.1c0,0.1,0,0.2,0.1,0.4
		c0.4,0.9,1.3,1.5,2.1,2.1c0.9,0.6,1.9,0.9,2.9,0.9c0.1,0,0.3,0,0.3,0c0,0.4,0.1,0.7,0.4,1c0.3,0.3,0.7,0.7,1.1,1
		c0.2,0.2,0.4,0.4,0.6,0.6c0.7,0.6,1.6,1,2.5,1h1.7c-0.1,0.5,0.2,1.1,0.6,1.4l0.5,0.4c1,0.8,2.3,1.2,3.6,1.2l3.1-0.1
		c0.1,0,0.3,0,0.5-0.1c0.1,0.4,0.4,0.7,1,1c1.8,1.1,5.1,1.5,5.3,1.4c0.4-0.1,0.6-0.3,0.7-0.5C52.6,29.2,52.4,28.8,52.4,28.7z
		 M16.8,12.1c-2.5,0-4.9-1.1-6.4-3c-0.3-0.4-0.6-0.8-0.9-1.2C9.2,7.4,9.4,7,9.9,7l30,0c0.7,0,1.3,0.6,1.3,1.3v0.6
		c0,0.6-0.4,1.1-1,1.1C31.5,11,22.6,12,16.8,12.1z M21.1,15.8c-0.9-0.5-1.8-1.3-2.3-2.1c-0.3-0.5,0.2-0.8,0.8-0.8
		c3.7,0.1,15.2-1.4,20.1-2.4c1.1-0.2,2.4,0.6,2.2,1.7c-0.1,0.3-0.3,0.6-0.6,0.7l-14.7,3.5C24.7,16.9,22.8,16.8,21.1,15.8z M31,20
		c-0.9,0-1.8-0.2-2.6-0.7c-0.9-0.6-1.5-1.1-1.8-1.7c-0.1-0.2,0-0.3,0.2-0.4c2.4-0.5,5.8-1.6,9.4-2.3c0.8-0.2,1.5,0.3,1.7,1.1
		l0.1,0.7c0.3,0.7-0.1,1.3-0.8,1.6C35.3,19.1,33.1,19.9,31,20z M37.6,23.5h-1.8c-0.7,0-1.3-0.3-1.8-0.7c-0.6-0.6-1.3-1-1.7-1.5
		c-0.3-0.3-0.1-0.8,0.2-0.9l5.6-1.7c0.5-0.1,1,0,1.3,0.4l2.1,2.6c0.1,0.2-0.2,0.5-0.3,0.5C41.2,22.3,38,23.5,37.6,23.5z M45.3,26.3
		l-3,0.1c-1.1,0-2.2-0.3-3-0.9l-0.5-0.4c-0.2-0.2-0.3-0.5-0.2-0.7c0.3-0.5,0.8-0.8,1.6-1.1c0.7-0.3,1.4-0.4,2.2-0.4h0.9l4.1,1.9
		c0.5,0.2,0.4,0.9-0.1,1.1C46.4,26.1,45.4,26.3,45.3,26.3z"/>
</g>
<g>
	<path class="st0" d="M90.8,29.2c0,0.2,0.2,0.4,0.7,0.5c0.1,0,3.5-0.3,5.3-1.4c0.5-0.3,0.8-0.7,1-1c0.2,0,0.4,0.1,0.5,0.1l3.1,0.1
		c1.3,0,2.5-0.4,3.6-1.2l0.5-0.4c0.5-0.3,0.7-0.9,0.6-1.4h1.7c0.9,0,1.8-0.3,2.5-1c0.2-0.2,0.4-0.4,0.6-0.6c0.4-0.3,0.8-0.7,1.1-1
		c0.3-0.3,0.4-0.6,0.4-1c0,0,0.2,0,0.3,0c1,0,2-0.3,2.9-0.9c0.9-0.5,1.7-1.2,2.1-2.1c0.1-0.1,0.1-0.2,0.1-0.4c0.4,0,0.8,0.1,1.1,0.1
		c1.4,0,2.8-0.3,4-1c1.1-0.6,2.1-1.5,2.7-2.5c0.2-0.4,0.3-0.8,0.2-1.2c0.3,0,1,0,1,0c2.8,0,5.4-1.2,7.1-3.4c0.3-0.3,0.7-0.8,1-1.3
		c0.2-0.3,0.3-0.8,0.2-1.1l1.4,0c0.4,0,1.9-0.8,3.3-1.8c1.1-0.8,2.2-1.7,2.8-2.4c0.4-0.5,1.6-2.9,0.3-2.9L96.6,0.2
		c-2.3,0.1-4.3,5.2-4.1,6.6c0,1.4,0,3.4,0,4.7c0,0.9-0.3,1.8-0.9,2.5c-0.1,0.1-0.2,0.2-0.2,0.2c0,0.2,0,0.4,0,0.7
		c0.1,0.2,0.1,0.4,0.2,0.6c0,0,0,0,0,0.1c0.5-0.6,1.7-1.8,2-2.8c0-0.1,0-6,0-6c0-1.5,2.1-5.6,3.1-5.6L142,1c0.6,0,0.1,0.8-0.2,1.3
		c-1.5,1.8-5.2,3.9-5.3,3.9l-33.1,0c-0.8,0-1.6,0.5-1.7,1.3c0,0-0.6,3.4-0.6,3.7c-0.7,6.6-7.4,9.2-8.7,9.2c0,0.3,0,0.6,0,0.9
		c4.2-1,7.2-3.5,9.1-7.5c0.1-0.2,0.2-0.3,0.4-0.3c1,0,2,0.2,2.7,0.4c0.4,0.1,0.7,0.5,0.5,0.9c-2.7,7.7-9.8,9.8-12.2,10
		c-0.1,0-0.6,0-0.8,0c0,0,0,0-0.1-0.1c0,0,0,0.1,0,0.1c0,0,0,0,0,0c0,0.3-0.1,0.5-0.1,0.8c2.7,0,2.2,0.3,4.2,0.8
		c0.6,0,0.8,0.6,0.1,0.9c-1.9,0.9-3.8,1.4-4.8,1.2c-0.1,0-0.3,0.1-0.4,0.1C91,28.8,90.8,29.2,90.8,29.2z M103.2,10
		c-0.6-0.1-1-0.6-1-1.1V8.3c0-0.7,0.6-1.3,1.3-1.3l30,0c0.5,0,0.7,0.3,0.5,0.8c-0.2,0.4-0.6,0.8-0.9,1.2c-1.6,1.9-3.9,3-6.4,3
		C120.8,12,111.9,11,103.2,10z M116.9,16.5L102.2,13c-0.3-0.1-0.6-0.3-0.6-0.7c-0.2-1.1,1.1-1.9,2.2-1.7c4.9,0.9,16.5,2.4,20.1,2.4
		c0.6,0,1.1,0.3,0.8,0.8c-0.5,0.9-1.4,1.6-2.3,2.1C120.7,16.8,118.7,16.9,116.9,16.5z M106,18.2c-0.7-0.3-1-0.9-0.8-1.6l0.1-0.7
		c0.2-0.7,0.9-1.2,1.7-1.1c3.6,0.8,7,1.9,9.4,2.3c0.2,0,0.3,0.2,0.2,0.4c-0.3,0.6-0.9,1.1-1.8,1.7c-0.8,0.5-1.7,0.7-2.6,0.7
		C110.3,19.9,108.1,19.1,106,18.2z M102.2,22.3c-0.2-0.1-0.5-0.4-0.3-0.5l2.1-2.6c0.3-0.4,0.8-0.6,1.3-0.4l5.6,1.7
		c0.4,0.1,0.5,0.6,0.2,0.9c-0.4,0.4-1,0.9-1.7,1.5c-0.5,0.4-1.1,0.7-1.8,0.7h-1.8C105.4,23.5,102.2,22.3,102.2,22.3z M96.2,25.9
		c-0.5-0.1-0.6-0.8-0.1-1.1l4.1-1.9h0.9c0.7,0,1.5,0.1,2.2,0.4c0.8,0.3,1.3,0.6,1.6,1.1c0.2,0.2,0.1,0.5-0.2,0.7l-0.5,0.4
		c-0.9,0.7-1.9,1-3,0.9l-3-0.1C98,26.3,97,26.1,96.2,25.9z"/>
</g>
</svg>
